<?xml version="1.0" encoding="UTF-8" standalone="no"?><!DOCTYPE svg PUBLIC "-//W3C//DTD SVG 1.1//EN" "http://www.w3.org/Graphics/SVG/1.1/DTD/svg11.dtd"><svg width="100%" height="100%" viewBox="0 0 1551 446" version="1.1" xmlns="http://www.w3.org/2000/svg" xmlns:xlink="http://www.w3.org/1999/xlink" xml:space="preserve" xmlns:serif="http://www.serif.com/" style="fill-rule:evenodd;clip-rule:evenodd;stroke-linejoin:round;stroke-miterlimit:2;"><g><path d="M186.909,445.387c-19.716,0 -36.771,-3.844 -51.163,-11.534c-14.393,-7.689 -26.124,-18.927 -35.194,-33.714c-9.069,-14.787 -15.378,-32.827 -18.927,-54.121l-10.055,0l-0.592,91.089l-70.978,-0l0,-421.137l85.174,0l-0,99.961c-0,9.464 -0.592,19.716 -1.775,30.757c-1.183,11.041 -2.859,22.476 -5.027,34.306c-2.169,11.83 -4.437,23.857 -6.802,36.081l12.421,-0c4.732,-20.505 11.534,-38.053 20.406,-52.642c8.872,-14.59 20.209,-25.829 34.01,-33.715c13.802,-7.887 30.363,-11.83 49.685,-11.83c25.631,0 47.812,6.704 66.542,20.111c18.73,13.407 33.222,32.236 43.474,56.486c10.252,24.251 15.378,53.333 15.378,87.244c0,33.518 -5.126,62.402 -15.378,86.653c-10.252,24.251 -24.842,42.981 -43.77,56.191c-18.927,13.209 -41.404,19.814 -67.429,19.814Zm-29.574,-69.795c13.801,0 25.729,-3.844 35.785,-11.534c10.055,-7.689 17.843,-18.631 23.363,-32.827c5.521,-14.196 8.281,-30.56 8.281,-49.093c-0,-18.928 -2.662,-35.391 -7.985,-49.389c-5.323,-13.999 -12.816,-24.941 -22.477,-32.827c-9.66,-7.887 -21.589,-11.83 -35.784,-11.83c-9.464,-0 -18.041,1.774 -25.73,5.323c-7.689,3.549 -14.491,8.38 -20.406,14.492c-5.915,6.112 -10.943,12.914 -15.083,20.406c-4.14,7.492 -7.196,15.477 -9.168,23.955c-1.972,8.478 -2.957,16.66 -2.957,24.546l-0,10.056c-0,9.858 1.38,20.012 4.14,30.461c2.76,10.45 7.196,20.111 13.308,28.983c6.112,8.872 13.605,15.97 22.477,21.293c8.872,5.324 19.617,7.985 32.236,7.985Z" style="fill-rule:nonzero;"/><path d="M354.89,437.107l0,-310.529l70.978,-0l0,108.833l10.647,-0c2.76,-27.209 7.985,-49.291 15.674,-66.247c7.69,-16.955 18.238,-29.475 31.645,-37.559c13.407,-8.083 29.968,-12.125 49.685,-12.125c3.943,-0 8.182,0.197 12.716,0.591c4.535,0.395 9.76,1.38 15.675,2.958l-3.549,90.497c-6.704,-2.761 -13.604,-4.732 -20.702,-5.915c-7.098,-1.183 -13.407,-1.775 -18.928,-1.775c-14.984,0 -27.996,3.549 -39.038,10.647c-11.041,7.098 -19.814,17.449 -26.321,31.053c-6.506,13.604 -10.942,30.067 -13.308,49.389l0,140.182l-85.174,-0Z" style="fill-rule:nonzero;"/><path d="M590.301,437.107l-0,-310.529l85.174,-0l-0,310.529l-85.174,-0Zm42.587,-354.891c-16.562,0 -29.279,-3.45 -38.151,-10.351c-8.872,-6.9 -13.308,-17.054 -13.308,-30.461c-0,-13.801 4.436,-24.152 13.308,-31.053c8.872,-6.901 21.589,-10.351 38.151,-10.351c16.956,-0 29.87,3.45 38.742,10.351c8.872,6.901 13.308,17.252 13.308,31.053c0,13.407 -4.436,23.561 -13.308,30.461c-8.872,6.901 -21.786,10.351 -38.742,10.351Z" style="fill-rule:nonzero;"/><path d="M732.257,437.107l0,-310.529l68.612,-0l-0.591,97.594l10.646,0c5.127,-24.053 12.126,-43.868 20.998,-59.444c8.872,-15.575 19.815,-27.208 32.828,-34.897c13.012,-7.69 28.391,-11.534 46.135,-11.534c18.533,-0 33.912,4.239 46.136,12.717c12.224,8.478 21.688,20.504 28.391,36.08c6.704,15.576 10.647,34.602 11.83,57.078l9.464,0c5.52,-24.448 13.209,-44.459 23.068,-60.035c9.858,-15.576 21.786,-27.11 35.784,-34.602c13.999,-7.492 29.673,-11.238 47.023,-11.238c16.956,-0 31.743,3.352 44.362,10.055c12.618,6.703 23.265,16.562 31.94,29.574c8.675,13.013 15.083,29.377 19.223,49.093c4.14,19.717 6.211,42.39 6.211,68.021l-0,162.067l-85.174,-0l-0,-152.012c-0,-20.899 -1.775,-38.249 -5.323,-52.05c-3.549,-13.802 -8.873,-24.153 -15.971,-31.053c-7.097,-6.901 -16.364,-10.351 -27.799,-10.351c-13.013,-0 -24.251,4.436 -33.715,13.308c-9.464,8.872 -16.956,21.392 -22.476,37.559c-5.521,16.168 -8.478,34.701 -8.873,55.6l0,138.999l-83.399,-0l0,-149.646c0,-21.688 -1.873,-39.531 -5.619,-53.529c-3.746,-13.999 -9.266,-24.547 -16.561,-31.644c-7.295,-7.098 -16.661,-10.647 -28.096,-10.647c-13.013,-0 -24.251,4.436 -33.714,13.308c-9.464,8.872 -16.759,21.392 -21.885,37.559c-5.127,16.168 -7.887,34.898 -8.281,56.191l-0,138.408l-85.174,-0Z" style="fill-rule:nonzero;"/><path d="M1411.28,445.387c-26.026,0 -48.896,-3.647 -68.612,-10.942c-19.717,-7.295 -36.475,-17.745 -50.277,-31.349c-13.801,-13.604 -24.25,-30.165 -31.348,-49.684c-7.098,-19.519 -10.647,-41.503 -10.647,-65.951c0,-24.448 3.45,-46.924 10.351,-67.429c6.901,-20.505 16.956,-38.446 30.166,-53.825c13.21,-15.379 29.475,-27.208 48.797,-35.489c19.322,-8.281 41.207,-12.421 65.655,-12.421c24.054,-0 45.248,3.943 63.584,11.829c18.336,7.887 33.616,19.519 45.84,34.898c12.224,15.379 21.195,34.109 26.913,56.191c5.718,22.082 7.591,47.516 5.619,76.301l-241.917,1.775l0,-46.727l191.049,-1.775l-27.799,24.251c2.366,-20.899 0.985,-37.954 -4.141,-51.163c-5.126,-13.21 -12.914,-23.068 -23.363,-29.575c-10.45,-6.506 -22.181,-9.759 -35.194,-9.759c-14.984,-0 -27.997,4.042 -39.038,12.125c-11.041,8.084 -19.617,19.618 -25.729,34.602c-6.112,14.984 -9.168,33.123 -9.168,54.417c-0,33.123 7.196,57.571 21.589,73.344c14.393,15.773 33.616,23.659 57.67,23.659c11.041,0 20.406,-1.479 28.095,-4.436c7.689,-2.957 13.999,-6.802 18.928,-11.534c4.929,-4.732 8.773,-10.154 11.534,-16.266c2.76,-6.112 4.929,-12.322 6.506,-18.632l74.527,14.788c-2.76,14.59 -7.492,27.898 -14.196,39.925c-6.703,12.027 -15.773,22.378 -27.208,31.053c-11.435,8.675 -25.138,15.477 -41.108,20.406c-15.97,4.929 -34.996,7.393 -57.078,7.393Z" style="fill-rule:nonzero;"/></g></svg>